:FULLY-SPECIFIED
:FORCE-ALL-JOINTS-BE-3DOF
:DEGREES
611
root 5.62139 16.6841 -3.79254 0.142392 52.21 -7.76071
lfemur -17.9093 24.7084 -22.2897
ltibia 40.2347 0 0
lfoot -32.9509 25.6617 0
ltoes 19.3631 0 0
rfemur -53.3685 -18.0375 27.9182
rtibia 63.394 0 0
rfoot 8.34217 30.2732 0
rtoes -3.95168 0 0
lowerback 3.63508 -3.36968 -4.81125
upperback 0.0856218 -4.67096 1.10034
thorax -1.46897 -2.29733 4.03142
lowerneck -8.44053 -9.29643 -0.443964
upperneck 14.9996 -13.2424 4.34141
head 6.27143 -6.09527 0.375654
lclavicle 9.39252e-14 1.20268e-14 0
lhumerus -22.2556 -42.1498 92.9601
lradius 56.6682 0 0
lwrist 20.4479 0 0
lhand -10.4693 0.244864 0
lfingers 7.12502 0 0
lthumb 15.5319 29.6439 0
rclavicle 9.39252e-14 1.20268e-14 0
rhumerus 22.4751 3.39098 -72.2238
rradius 118.019 0 0
rwrist -58.9751 0 0
rhand -27.0824 -22.5277 0
rfingers 7.12502 0 0
rthumb -0.499694 -772.505 0
612
root 5.62916 16.7055 -3.81246 0.655846 50.4189 -7.30625
lfemur -17.7103 25.0032 -22.6605
ltibia 39.718 0 0
lfoot -33.5076 26.1554 0
ltoes 21.253 0 0
rfemur -53.583 -18.2059 27.5006
rtibia 65.0472 0 0
rfoot 8.76986 30.36 0
rtoes -4.78844 0 0
lowerback 3.52978 -3.46435 -4.63379
upperback -0.0237246 -4.78746 1.12329
thorax -1.52299 -2.35333 3.95655
lowerneck -8.62899 -9.05674 -0.269816
upperneck 15.1065 -12.8956 3.99486
head 6.29406 -5.93985 0.262073
lclavicle 8.4731e-14 1.41525e-14 0
lhumerus -22.248 -42.7987 93.4865
lradius 57.2154 0 0
lwrist 20.3308 0 0
lhand -10.4917 0.0537093 0
lfingers 7.12502 0 0
lthumb 15.5103 29.4553 0
rclavicle 8.4731e-14 1.41525e-14 0
rhumerus 22.1836 2.94874 -72.0399
rradius 116.661 0 0
rwrist -59.085 0 0
rhand -27.4178 -23.1006 0
rfingers 7.12502 0 0
rthumb -0.823631 -773.076 0
613
root 5.64169 16.7272 -3.83037 1.149 48.6562 -6.8661
lfemur -17.4886 25.3315 -23.0458
ltibia 39.1746 0 0
lfoot -34.1204 26.5511 0
ltoes 23.1463 0 0
rfemur -53.6961 -18.3215 26.9293
rtibia 66.6423 0 0
rfoot 9.28408 30.3486 0
rtoes -6.12812 0 0
lowerback 3.39907 -3.5488 -4.45702
upperback -0.132982 -4.88882 1.15508
thorax -1.56443 -2.40241 3.88927
lowerneck -8.81734 -8.81922 -0.10823
upperneck 15.2075 -12.5485 3.64087
head 6.31709 -5.78601 0.147912
lclavicle 7.16335e-14 1.63873e-14 0
lhumerus -22.2436 -43.3908 94.0193
lradius 57.8208 0 0
lwrist 20.2904 0 0
lhand -10.645 -0.200046 0
lfingers 7.12502 0 0
lthumb 15.3627 29.2124 0
rclavicle 7.16335e-14 1.63873e-14 0
rhumerus 21.8551 2.56368 -71.8353
rradius 115.279 0 0
rwrist -59.1055 0 0
rhand -27.8645 -23.8262 0
rfingers 7.12502 0 0
rthumb -1.25505 -773.798 0
614
root 5.6572 16.7488 -3.84566 1.624 46.937 -6.45225
lfemur -17.2518 25.6338 -23.4169
ltibia 38.6232 0 0
lfoot -34.7332 26.8483 0
ltoes 24.9591 0 0
rfemur -53.7115 -18.3967 26.2616
rtibia 68.111 0 0
rfoot 9.81249 30.1932 0
rtoes -7.75712 0 0
lowerback 3.24681 -3.62214 -4.2824
upperback -0.242945 -4.97437 1.19703
thorax -1.5957 -2.44403 3.83188
lowerneck -9.00141 -8.5902 0.0413744
upperneck 15.2975 -12.2122 3.29617
head 6.33884 -5.63789 0.0376996
lclavicle 5.67429e-14 1.84041e-14 0
lhumerus -22.2451 -43.9489 94.5638
lradius 58.4631 0 0
lwrist 20.3013 0 0
lhand -10.8755 -0.485192 0
lfingers 7.12502 0 0
lthumb 15.1405 28.943 0
rclavicle 5.67429e-14 1.84041e-14 0
rhumerus 21.456 2.2334 -71.5957
rradius 113.898 0 0
rwrist -59.0505 0 0
rhand -28.3677 -24.6228 0
rfingers 7.12502 0 0
rthumb -1.74102 -774.592 0
615
root 5.6739 16.7698 -3.85774 2.08302 45.2764 -6.07669
lfemur -17.0079 25.8507 -23.7454
ltibia 38.0826 0 0
lfoot -35.29 27.0466 0
ltoes 26.6078 0 0
rfemur -53.6327 -18.4437 25.5546
rtibia 69.385 0 0
rfoot 10.2827 29.8481 0
rtoes -9.46183 0 0
lowerback 3.07687 -3.68348 -4.11139
upperback -0.354413 -5.04343 1.25047
thorax -1.61917 -2.47766 3.78671
lowerneck -9.17707 -8.37603 0.179579
upperneck 15.3713 -11.8977 2.97744
head 6.35765 -5.49959 -0.0640359
lclavicle 4.21692e-14 1.98762e-14 0
lhumerus -22.2554 -44.4961 95.1254
lradius 59.121 0 0
lwrist 20.3382 0 0
lhand -11.1297 -0.770518 0
lfingers 7.12502 0 0
lthumb 14.8956 28.6749 0
rclavicle 4.21692e-14 1.98762e-14 0
rhumerus 20.9531 1.95553 -71.3071
rradius 112.543 0 0
rwrist -58.9338 0 0
rhand -28.8726 -25.409 0
rfingers 7.12502 0 0
rthumb -2.2286 -775.374 0
616
root 5.69003 16.7898 -3.86602 2.52822 43.6893 -5.75139
lfemur -16.7646 25.9227 -24.0028
ltibia 37.5714 0 0
lfoot -35.7348 27.1453 0
ltoes 28.0084 0 0
rfemur -53.4635 -18.4747 24.8656
rtibia 70.3959 0 0
rfoot 10.6224 29.2675 0
rtoes -11.0287 0 0
lowerback 2.89312 -3.73193 -3.94544
upperback -0.46818 -5.09531 1.3167
thorax -1.63722 -2.50276 3.75609
lowerneck -9.34016 -8.18302 0.306965
upperneck 15.4236 -11.6163 2.70139
head 6.37185 -5.37526 -0.152765
lclavicle 3.00226e-14 2.04766e-14 0
lhumerus -22.2772 -45.055 95.7096
lradius 59.7732 0 0
lwrist 20.3755 0 0
lhand -11.3539 -1.02481 0
lfingers 7.12502 0 0
lthumb 14.6795 28.4357 0
rclavicle 3.00226e-14 2.04766e-14 0
rhumerus 20.3127 1.72769 -70.9554
rradius 111.24 0 0
rwrist -58.7692 0 0
rhand -29.3243 -26.1033 0
rfingers 7.12502 0 0
rthumb -2.66484 -776.065 0
617
root 5.7038 16.8082 -3.86989 2.96174 42.1909 -5.48836
lfemur -16.5296 25.7905 -24.1604
ltibia 37.1083 0 0
lfoot -36.0114 27.1441 0
ltoes 29.0772 0 0
rfemur -53.2075 -18.5019 24.2519
rtibia 71.0755 0 0
rfoot 10.7592 28.4055 0
rtoes -12.244 0 0
lowerback 2.69943 -3.76662 -3.786
upperback -0.585043 -5.12934 1.39705
thorax -1.65224 -2.51879 3.74232
lowerneck -9.48653 -8.01751 0.424114
upperneck 15.4494 -11.379 2.48474
head 6.37978 -5.26899 -0.223958
lclavicle 2.2413e-14 1.98785e-14 0
lhumerus -22.3131 -45.6486 96.3219
lradius 60.3983 0 0
lwrist 20.388 0 0
lhand -11.4946 -1.21687 0
lfingers 7.12502 0 0
lthumb 14.544 28.2533 0
rclavicle 2.2413e-14 1.98785e-14 0
rhumerus 19.5016 1.54748 -70.5266
rradius 110.013 0 0
rwrist -58.5705 0 0
rhand -29.668 -26.6242 0
rfingers 7.12502 0 0
rthumb -2.99681 -776.583 0
618
root 5.71664 16.8265 -3.86932 3.36588 40.7928 -5.30428
lfemur -16.3002 25.4195 -24.2094
ltibia 36.6972 0 0
lfoot -36.1067 27.0824 0
ltoes 29.7743 0 0
rfemur -52.8085 -18.5112 23.6735
rtibia 71.3744 0 0
rfoot 10.6715 27.2076 0
rtoes -13.3146 0 0
lowerback 2.49123 -3.78452 -3.62541
upperback -0.703792 -5.14094 1.50365
thorax -1.66057 -2.5237 3.75298
lowerneck -9.6174 -7.87951 0.530306
upperneck 15.4499 -11.1854 2.32368
head 6.38244 -5.1809 -0.278783
lclavicle 1.99154e-14 1.77944e-14 0
lhumerus -22.3244 -46.2442 96.9587
lradius 60.9877 0 0
lwrist 20.3845 0 0
lhand -11.5842 -1.36115 0
lfingers 7.12502 0 0
lthumb 14.4577 28.1154 0
rclavicle 1.99154e-14 1.77944e-14 0
rhumerus 18.5241 1.39646 -69.9815
rradius 108.876 0 0
rwrist -58.3875 0 0
rhand -29.9213 -26.9627 0
rfingers 7.12502 0 0
rthumb -3.24141 -776.919 0
619
root 5.73059 16.8455 -3.86483 3.73281 39.4853 -5.19405
lfemur -16.0686 24.8509 -24.1723
ltibia 36.3227 0 0
lfoot -36.0663 26.974 0
ltoes 30.161 0 0
rfemur -52.2446 -18.4872 23.0663
rtibia 71.337 0 0
rfoot 10.4164 25.6963 0
rtoes -14.4991 0 0
lowerback 2.26355 -3.78542 -3.45983
upperback -0.823314 -5.12918 1.63938
thorax -1.65889 -2.51728 3.78854
lowerneck -9.73687 -7.7634 0.624785
upperneck 15.4302 -11.0254 2.20209
head 6.38163 -5.10736 -0.321654
lclavicle 2.0846e-14 1.44192e-14 0
lhumerus -22.2956 -46.8106 97.614
lradius 61.5575 0 0
lwrist 20.3905 0 0
lhand -11.6812 -1.49021 0
lfingers 7.12502 0 0
lthumb 14.3642 27.9932 0
rclavicle 2.0846e-14 1.44192e-14 0
rhumerus 17.4116 1.27059 -69.3195
rradius 107.811 0 0
rwrist -58.2247 0 0
rhand -30.1386 -27.1881 0
rfingers 7.12502 0 0
rthumb -3.45131 -777.141 0
620
root 5.74484 16.864 -3.85665 4.07952 38.252 -5.137
lfemur -15.835 24.1392 -24.0673
ltibia 35.9748 0 0
lfoot -35.9218 26.7794 0
ltoes 30.305 0 0
rfemur -51.5707 -18.4396 22.451
rtibia 71.0353 0 0
rfoot 10.0397 23.9414 0
rtoes -15.6622 0 0
lowerback 2.01969 -3.77263 -3.29643
upperback -0.944556 -5.09887 1.79166
thorax -1.65005 -2.50176 3.84064
lowerneck -9.84509 -7.66705 0.708075
upperneck 15.3907 -10.8958 2.1182
head 6.37692 -5.0469 -0.352915
lclavicle 2.39263e-14 1.01491e-14 0
lhumerus -22.2647 -47.3729 98.2895
lradius 62.1234 0 0
lwrist 20.4057 0 0
lhand -11.771 -1.60001 0
lfingers 7.12502 0 0
lthumb 14.2777 27.8898 0
rclavicle 2.39263e-14 1.01491e-14 0
rhumerus 16.1706 1.18913 -68.5845
rradius 106.795 0 0
rwrist -58.0274 0 0
rhand -30.3209 -27.3368 0
rfingers 7.12502 0 0
rthumb -3.62729 -777.287 0
